<svg width="83" height="83" viewBox="0 0 83 83" fill="none" xmlns="http://www.w3.org/2000/svg">
<path d="M41.5 0C18.6 0 0 18.6 0 41.5C0 64.4 18.6 83 41.5 83C64.4 83 83 64.4 83 41.5C83 18.6 64.4 0 41.5 0ZM41.5 78C21.4 78 5 61.6 5 41.5C5 21.4 21.4 5 41.5 5C61.6 5 78 21.4 78 41.5C78 61.6 61.6 78 41.5 78Z" fill="black"/>
<path d="M55 41.5C55 34.1 48.9 28 41.5 28C34.1 28 28 34.1 28 41.5C28 48.9 34.1 55 41.5 55C48.9 55 55 48.9 55 41.5ZM33 41.5C33 36.8 36.8 33 41.5 33C46.2 33 50 36.8 50 41.5C50 46.2 46.2 50 41.5 50C36.8 50 33 46.2 33 41.5Z" fill="black"/>
<path d="M41.5 14.5C42.9 14.5 44 13.4 44 12C44 10.6 42.9 9.5 41.5 9.5C23.9 9.5 9.5 23.9 9.5 41.5C9.5 42.9 10.6 44 12 44C13.4 44 14.5 42.9 14.5 41.5C14.5 26.6 26.6 14.5 41.5 14.5Z" fill="black"/>
<path d="M41.5 68.5C40.1 68.5 39 69.6 39 71C39 72.4 40.1 73.5 41.5 73.5C59.1 73.5 73.5 59.1 73.5 41.5C73.5 40.1 72.4 39 71 39C69.6 39 68.5 40.1 68.5 41.5C68.5 56.4 56.4 68.5 41.5 68.5Z" fill="black"/>
<path d="M41.5 23C42.9 23 44 21.9 44 20.5C44 19.1 42.9 18 41.5 18C28.5 18 18 28.5 18 41.5C18 42.9 19.1 44 20.5 44C21.9 44 23 42.9 23 41.5C23 31.3 31.3 23 41.5 23Z" fill="black"/>
<path d="M41.5 60C40.1 60 39 61.1 39 62.5C39 63.9 40.1 65 41.5 65C54.5 65 65 54.5 65 41.5C65 40.1 63.9 39 62.5 39C61.1 39 60 40.1 60 41.5C60 51.7 51.7 60 41.5 60Z" fill="black"/>
<path d="M44.5 41.5C44.5 39.8 43.2 38.5 41.5 38.5C39.8 38.5 38.5 39.8 38.5 41.5C38.5 43.2 39.8 44.5 41.5 44.5C43.2 44.5 44.5 43.2 44.5 41.5Z" fill="black"/>
</svg>
