<svg width="21" height="21" viewBox="0 0 21 21" fill="none" xmlns="http://www.w3.org/2000/svg">
<path d="M3.15869 9.76109C3.15869 10.0807 3.41804 10.3398 3.73762 10.3398C4.05721 10.3398 4.31634 10.0807 4.31634 9.76109C4.31634 6.67588 6.82605 4.16595 9.91105 4.16595C10.2308 4.16595 10.49 3.90682 10.49 3.58723C10.49 3.26744 10.2308 3.0083 9.91105 3.0083C6.18775 3.00852 3.15869 6.03757 3.15869 9.76109Z" fill="white"/>
<path d="M10.4891 5.58385C10.4891 5.26426 10.2299 5.00513 9.91014 5.00513C7.28811 5.00513 5.15479 7.13846 5.15479 9.76091C5.15479 10.0805 5.41392 10.3396 5.73372 10.3396C6.0533 10.3396 6.31244 10.0805 6.31244 9.76091C6.31244 7.77698 7.92642 6.16278 9.91014 6.16278C10.2299 6.16278 10.4891 5.90364 10.4891 5.58385Z" fill="white"/>
<path d="M6.23838 17.8742C3.4078 16.3791 1.64935 13.4632 1.64935 10.2651C1.64935 5.52344 5.50705 1.66595 10.2487 1.66595C13.2885 1.66595 16.133 3.29687 17.6728 5.92211C17.8344 6.19796 18.1889 6.29013 18.4646 6.12852C18.7406 5.96691 18.833 5.61217 18.671 5.33632C16.9245 2.35827 13.6972 0.508301 10.2487 0.508301C4.86853 0.508301 0.491699 4.88534 0.491699 10.2653C0.491699 13.8941 2.48656 17.2018 5.6976 18.8981C5.78398 18.9437 5.87636 18.9651 5.96745 18.9651C6.17515 18.9651 6.37598 18.853 6.47994 18.6565C6.62912 18.374 6.52088 18.0238 6.23838 17.8742Z" fill="white"/>
<path d="M10.4081 8.84564C10.5761 8.84564 10.7388 8.87843 10.8919 8.94338C11.1868 9.06834 11.5261 8.93009 11.6506 8.6358C11.7752 8.3413 11.6375 8.00178 11.3428 7.87725C11.0466 7.75165 10.732 7.68799 10.4081 7.68799C9.0839 7.68799 8.00684 8.76548 8.00684 10.0897C8.00684 10.7595 8.28955 11.4038 8.78232 11.8573C8.89378 11.96 9.03417 12.0104 9.17413 12.0104C9.33039 12.0104 9.48621 11.9476 9.60046 11.8237C9.81694 11.5883 9.80172 11.222 9.56638 11.0058C9.30724 10.7674 9.16449 10.4416 9.16449 10.0899C9.16427 9.40357 9.7222 8.84564 10.4081 8.84564Z" fill="white"/>
<path d="M20.4212 9.88354H11.1173C10.7977 9.88354 10.5386 10.1427 10.5386 10.4623V19.7661C10.5386 20.0859 10.7977 20.3451 11.1173 20.3451H20.4209C20.741 20.3451 21.0001 20.0859 21.0001 19.7661V10.462C21.0003 10.1427 20.7412 9.88354 20.4212 9.88354ZM19.8422 19.1872H11.6962V11.0412H19.8424V19.1872H19.8422Z" fill="white"/>
<path d="M15.9671 15.3867C17.4375 15.3867 18.6339 14.1904 18.6339 12.72C18.6339 12.4002 18.3748 12.1411 18.055 12.1411C17.7352 12.1411 17.4761 12.4002 17.4761 12.72C17.4761 13.5521 16.7992 14.229 15.9671 14.229C15.135 14.229 14.4579 13.5521 14.4579 12.72C14.4579 12.4002 14.1986 12.1411 13.879 12.1411C13.5594 12.1411 13.3003 12.4002 13.3003 12.72C13.3003 14.1904 14.4965 15.3867 15.9671 15.3867Z" fill="white"/>
</svg>
