<svg width="26" height="27" viewBox="0 0 26 27" fill="none" xmlns="http://www.w3.org/2000/svg">
<path fill-rule="evenodd" clip-rule="evenodd" d="M0 5.4C0 3.96783 0.547856 2.59432 1.52304 1.58162C2.49823 0.568927 3.82087 0 5.2 0H20.8C22.1791 0 23.5018 0.568927 24.477 1.58162C25.4521 2.59432 26 3.96783 26 5.4V21.6C26 23.0322 25.4521 24.4057 24.477 25.4184C23.5018 26.4311 22.1791 27 20.8 27H5.2C3.82087 27 2.49823 26.4311 1.52304 25.4184C0.547856 24.4057 0 23.0322 0 21.6V5.4ZM5.2 2.7C4.51044 2.7 3.84912 2.98446 3.36152 3.49081C2.87393 3.99716 2.6 4.68392 2.6 5.4V21.6C2.6 22.3161 2.87393 23.0028 3.36152 23.5092C3.84912 24.0155 4.51044 24.3 5.2 24.3H13V14.85H11.7C11.3552 14.85 11.0246 14.7078 10.7808 14.4546C10.537 14.2014 10.4 13.858 10.4 13.5C10.4 13.142 10.537 12.7986 10.7808 12.5454C11.0246 12.2922 11.3552 12.15 11.7 12.15H13V10.125C13 8.87185 13.4794 7.67003 14.3327 6.78392C15.186 5.89781 16.3433 5.4 17.55 5.4H18.33C18.6748 5.4 19.0054 5.54223 19.2492 5.79541C19.493 6.04858 19.63 6.39196 19.63 6.75C19.63 7.10804 19.493 7.45142 19.2492 7.70459C19.0054 7.95777 18.6748 8.1 18.33 8.1H17.55C17.2939 8.1 17.0404 8.15238 16.8038 8.25414C16.5672 8.35591 16.3522 8.50507 16.1711 8.69311C15.9901 8.88115 15.8464 9.10438 15.7484 9.35007C15.6504 9.59575 15.6 9.85907 15.6 10.125V12.15H18.33C18.6748 12.15 19.0054 12.2922 19.2492 12.5454C19.493 12.7986 19.63 13.142 19.63 13.5C19.63 13.858 19.493 14.2014 19.2492 14.4546C19.0054 14.7078 18.6748 14.85 18.33 14.85H15.6V24.3H20.8C21.4896 24.3 22.1509 24.0155 22.6385 23.5092C23.1261 23.0028 23.4 22.3161 23.4 21.6V5.4C23.4 4.68392 23.1261 3.99716 22.6385 3.49081C22.1509 2.98446 21.4896 2.7 20.8 2.7H5.2Z" fill="#F1F1F1"/>
</svg>
