<svg width="26" height="27" viewBox="0 0 26 27" fill="none" xmlns="http://www.w3.org/2000/svg">
<path fill-rule="evenodd" clip-rule="evenodd" d="M0 5.4C0 3.96783 0.547856 2.59432 1.52304 1.58162C2.49823 0.568927 3.82087 0 5.2 0H20.8C22.1791 0 23.5018 0.568927 24.477 1.58162C25.4521 2.59432 26 3.96783 26 5.4V21.6C26 23.0322 25.4521 24.4057 24.477 25.4184C23.5018 26.4311 22.1791 27 20.8 27H5.2C3.82087 27 2.49823 26.4311 1.52304 25.4184C0.547856 24.4057 0 23.0322 0 21.6V5.4ZM5.2 2.7C4.51044 2.7 3.84912 2.98446 3.36152 3.49081C2.87393 3.99716 2.6 4.68392 2.6 5.4V21.6C2.6 22.3161 2.87393 23.0028 3.36152 23.5092C3.84912 24.0155 4.51044 24.3 5.2 24.3H20.8C21.4896 24.3 22.1509 24.0155 22.6385 23.5092C23.1261 23.0028 23.4 22.3161 23.4 21.6V5.4C23.4 4.68392 23.1261 3.99716 22.6385 3.49081C22.1509 2.98446 21.4896 2.7 20.8 2.7H5.2ZM13 9.45C11.9657 9.45 10.9737 9.87669 10.2423 10.6362C9.51089 11.3957 9.1 12.4259 9.1 13.5C9.1 14.5741 9.51089 15.6043 10.2423 16.3638C10.9737 17.1233 11.9657 17.55 13 17.55C14.0343 17.55 15.0263 17.1233 15.7577 16.3638C16.4891 15.6043 16.9 14.5741 16.9 13.5C16.9 12.4259 16.4891 11.3957 15.7577 10.6362C15.0263 9.87669 14.0343 9.45 13 9.45ZM6.5 13.5C6.5 11.7098 7.18482 9.9929 8.40381 8.72703C9.62279 7.46116 11.2761 6.75 13 6.75C14.7239 6.75 16.3772 7.46116 17.5962 8.72703C18.8152 9.9929 19.5 11.7098 19.5 13.5C19.5 15.2902 18.8152 17.0071 17.5962 18.273C16.3772 19.5388 14.7239 20.25 13 20.25C11.2761 20.25 9.62279 19.5388 8.40381 18.273C7.18482 17.0071 6.5 15.2902 6.5 13.5V13.5ZM20.15 8.1C20.6672 8.1 21.1632 7.88665 21.5289 7.50689C21.8946 7.12713 22.1 6.61206 22.1 6.075C22.1 5.53794 21.8946 5.02287 21.5289 4.64311C21.1632 4.26335 20.6672 4.05 20.15 4.05C19.6328 4.05 19.1368 4.26335 18.7711 4.64311C18.4054 5.02287 18.2 5.53794 18.2 6.075C18.2 6.61206 18.4054 7.12713 18.7711 7.50689C19.1368 7.88665 19.6328 8.1 20.15 8.1Z" fill="#F1F1F1"/>
</svg>
