<svg width="16" height="20" viewBox="0 0 16 20" fill="none" xmlns="http://www.w3.org/2000/svg">
<path d="M7.52941 7.5293H5.64706C5.39744 7.5293 5.15805 7.62846 4.98155 7.80496C4.80504 7.98147 4.70588 8.22086 4.70588 8.47047V14.4006C4.25831 14.2149 3.77868 14.1188 3.29412 14.1175C2.4842 14.061 1.68456 14.3255 1.06813 14.8539C0.451691 15.3822 0.0679926 16.132 0 16.9411C0.0679926 17.7501 0.451691 18.4999 1.06813 19.0282C1.68456 19.5566 2.4842 19.8211 3.29412 19.7646C4.10404 19.8211 4.90367 19.5566 5.52011 19.0282C6.13654 18.4999 6.52024 17.7501 6.58824 16.9411V9.41165H7.52941C7.77903 9.41165 8.01842 9.31249 8.19493 9.13599C8.37143 8.95948 8.47059 8.72009 8.47059 8.47047C8.47059 8.22086 8.37143 7.98147 8.19493 7.80496C8.01842 7.62846 7.77903 7.5293 7.52941 7.5293ZM3.29412 17.8822C2.54231 17.8822 1.88235 17.442 1.88235 16.9411C1.88235 16.4402 2.54231 15.9999 3.29412 15.9999C4.04593 15.9999 4.70588 16.4402 4.70588 16.9411C4.70588 17.442 4.04593 17.8822 3.29412 17.8822Z" fill="white"/>
<path d="M7.52956 3.76465C7.27994 3.76465 7.04055 3.86381 6.86404 4.04031C6.68754 4.21682 6.58838 4.45621 6.58838 4.70582C6.58838 4.95544 6.68754 5.19483 6.86404 5.37134C7.04055 5.54784 7.27994 5.647 7.52956 5.647C8.27815 5.64782 8.99585 5.94557 9.52518 6.4749C10.0545 7.00424 10.3523 7.72194 10.3531 8.47053C10.3531 8.72015 10.4522 8.95954 10.6287 9.13604C10.8053 9.31255 11.0446 9.41171 11.2943 9.41171C11.5439 9.41171 11.7833 9.31255 11.9598 9.13604C12.1363 8.95954 12.2354 8.72015 12.2354 8.47053C12.234 7.2229 11.7377 6.0268 10.8555 5.14459C9.97329 4.26239 8.77718 3.76612 7.52956 3.76465Z" fill="white"/>
<path d="M7.52956 0C7.27994 0 7.04055 0.0991596 6.86404 0.275664C6.68754 0.452169 6.58838 0.691561 6.58838 0.941177C6.58838 1.19079 6.68754 1.43018 6.86404 1.60669C7.04055 1.78319 7.27994 1.88235 7.52956 1.88235C9.27624 1.88437 10.9508 2.57913 12.1859 3.81423C13.421 5.04933 14.1158 6.7239 14.1178 8.47059C14.1178 8.7202 14.2169 8.9596 14.3935 9.1361C14.57 9.31261 14.8094 9.41177 15.059 9.41177C15.3086 9.41177 15.548 9.31261 15.7245 9.1361C15.901 8.9596 16.0001 8.7202 16.0001 8.47059C15.9977 6.22481 15.1044 4.07173 13.5164 2.48373C11.9284 0.895726 9.77533 0.00249116 7.52956 0V0Z" fill="white"/>
</svg>
