<svg width="30" height="26" viewBox="0 0 30 26" fill="none" xmlns="http://www.w3.org/2000/svg">
<path fill-rule="evenodd" clip-rule="evenodd" d="M9.33396 3.1129C12.8686 2.61067 17.1314 2.61067 20.666 3.1129C23.8775 3.56996 26.3662 5.83065 26.8407 8.26651C27.4176 11.2155 27.4176 14.7845 26.8407 17.7335C26.3648 20.1693 23.8775 22.43 20.666 22.8871C17.1314 23.3893 12.8672 23.3893 9.33396 22.8871C6.12253 22.43 3.6352 20.1693 3.15928 17.7335C2.58244 14.7845 2.58244 11.2155 3.15928 8.26651C3.6352 5.83065 6.12253 3.56996 9.33396 3.1129V3.1129ZM21.0479 0.403353C17.261 -0.134451 12.739 -0.134451 8.95214 0.403353C4.84068 0.987684 1.22696 3.93123 0.483761 7.74102C-0.161254 11.0376 -0.161254 14.9624 0.483761 18.259C1.22696 22.0688 4.84068 25.0123 8.95214 25.5966C12.739 26.1345 17.261 26.1345 21.0479 25.5966C25.1593 25.0123 28.773 22.0688 29.5162 18.259C30.1613 14.9624 30.1613 11.0376 29.5162 7.74102C28.773 3.93123 25.1593 0.987684 21.0479 0.403353V0.403353ZM13.0295 6.38762C12.8241 6.25012 12.5854 6.17114 12.3388 6.15912C12.0922 6.1471 11.847 6.20249 11.6293 6.31937C11.4117 6.43624 11.2297 6.61023 11.1028 6.82277C10.9759 7.03531 10.909 7.27842 10.909 7.52617V18.4738C10.909 18.7216 10.9759 18.9647 11.1028 19.1772C11.2297 19.3898 11.4117 19.5638 11.6293 19.6806C11.847 19.7975 12.0922 19.8529 12.3388 19.8409C12.5854 19.8289 12.8241 19.7499 13.0295 19.6124L21.2115 14.1386C21.3983 14.0136 21.5514 13.8443 21.6573 13.6457C21.7632 13.447 21.8186 13.2253 21.8186 13C21.8186 12.7747 21.7632 12.553 21.6573 12.3543C21.5514 12.1557 21.3983 11.9864 21.2115 11.8614L13.0295 6.38762ZM17.996 13L13.6363 15.9176V10.0838L17.996 13Z" fill="#F1F1F1"/>
</svg>
